<?xml version="1.0" encoding="UTF-8"?>
<svg width="32px" height="32px" viewBox="0 0 32 32" version="1.1" xmlns="http://www.w3.org/2000/svg" xmlns:xlink="http://www.w3.org/1999/xlink">
    <title>Icon/32/Bell</title>
    <g id="Icon/32/Bell" stroke="none" stroke-width="1" fill="none" fill-rule="evenodd">
        <path d="M12,28 L-1.77635684e-14,28 L-1.77635684e-14,24 L1,24 C3.209139,24 5,22.209139 5,20 L5,10 C5,5.581722 8.581722,2 13,2 L14,2 C14,0.8954305 14.8954305,1.27675648e-13 16,1.27675648e-13 C17.1045695,1.27675648e-13 18,0.8954305 18,2 L19,2 C23.418278,2 27,5.581722 27,10 L27,20 C27,22.209139 28.790861,24 31,24 L32,24 L32,28 L20,28 C20,30.209139 18.209139,32 16,32 C13.790861,32 12,30.209139 12,28 Z M14,28 C14,29.1045695 14.8954305,30 16,30 C17.1045695,30 18,29.1045695 18,28 L14,28 Z M9,10 L9,20 C9,21.4571486 8.61042286,22.8233065 7.92974244,24 L24.0702576,24 C23.3895771,22.8233065 23,21.4571486 23,20 L23,10 C23,7.790861 21.209139,6 19,6 L13,6 C10.790861,6 9,7.790861 9,10 Z" id="Shape" fill="#000000" fill-rule="nonzero"></path>
    </g>
</svg>