<?xml version="1.0" encoding="UTF-8"?>
<svg width="151px" height="68px" viewBox="0 0 151 68" version="1.1" xmlns="http://www.w3.org/2000/svg" xmlns:xlink="http://www.w3.org/1999/xlink">
    <!-- Generator: Sketch 52.5 (67469) - http://www.bohemiancoding.com/sketch -->
    <title>Logo1_Amsterdam_151x68</title>
    <desc>Created with Sketch.</desc>
    <g id="Symbols" stroke="none" stroke-width="1" fill="none" fill-rule="evenodd">
        <g id="Header-Amsterdam.nl" transform="translate(-201.000000, -20.000000)" fill="#EC0000">
            <g id="Logo1_Amsterdam_151x68" transform="translate(201.000000, 20.000000)">
                <g id="Group">
                    <g fill-rule="nonzero">
                        <g transform="translate(30.000000, 1.000000)" id="Shape">
                            <path d="M15.2,15.9 C13.2,16.9 11,17.5 8.5,17.5 C3.5,17.5 0,14.1 0,9.1 C0,3.9 3.6,0.6 8.5,0.6 C11,0.6 13.2,1.1 14.9,2.6 L12.8,4.7 C11.8,3.7 10.2,3.1 8.6,3.1 C5.3,3.1 3.1,5.7 3.1,8.9 C3.1,12.3 5.3,14.9 8.6,14.9 C10.1,14.9 11.4,14.6 12.4,14.1 L12.4,10.3 L9,10.3 L9,7.6 L15.2,7.6 L15.2,15.9 Z"></path>
                            <path d="M20.5,12.5 C20.7,14.1 21.9,15.1 23.4,15.1 C24.8,15.1 25.7,14.5 26.3,13.6 L28.3,15.1 C27,16.7 25.4,17.3 23.7,17.3 C20.4,17.3 17.8,15 17.8,11.6 C17.8,8.2 20.4,5.9 23.7,5.9 C26.8,5.9 28.8,8 28.8,11.8 L28.8,12.6 L20.5,12.6 L20.5,12.5 Z M26.1,10.5 C26.1,8.9 25,7.9 23.3,7.9 C21.7,7.9 20.7,8.9 20.5,10.5 L26.1,10.5 Z"></path>
                            <path d="M31.3,6.1 L33.9,6.1 L33.9,7.8 L33.9,7.8 C34.4,6.8 35.4,5.8 37.2,5.8 C38.9,5.8 40,6.5 40.6,7.8 C41.4,6.4 42.6,5.8 44.2,5.8 C47.1,5.8 48.1,7.9 48.1,10.5 L48.1,17 L45.4,17 L45.4,10.8 C45.4,9.4 45,8.2 43.4,8.2 C41.7,8.2 41.1,9.6 41.1,11 L41.1,16.9 L38.4,16.9 L38.4,10.4 C38.4,9.1 37.9,8.2 36.5,8.2 C34.7,8.2 34,9.5 34,11 L34,17 L31.3,17 L31.3,6.1 Z"></path>
                            <path d="M53.4,12.5 C53.6,14.1 54.8,15.1 56.3,15.1 C57.7,15.1 58.6,14.5 59.2,13.6 L61.2,15.1 C59.9,16.7 58.3,17.3 56.6,17.3 C53.3,17.3 50.7,15 50.7,11.6 C50.7,8.2 53.3,5.9 56.6,5.9 C59.7,5.9 61.7,8 61.7,11.8 L61.7,12.6 L53.4,12.6 L53.4,12.5 Z M59.1,10.5 C59.1,8.9 58,7.9 56.3,7.9 C54.7,7.9 53.7,8.9 53.5,10.5 L59.1,10.5 Z"></path>
                            <path d="M66.5,12.5 C66.7,14.1 67.9,15.1 69.4,15.1 C70.8,15.1 71.7,14.5 72.3,13.6 L74.3,15.1 C73,16.7 71.4,17.3 69.7,17.3 C66.4,17.3 63.8,15 63.8,11.6 C63.8,8.2 66.4,5.9 69.7,5.9 C72.8,5.9 74.8,8 74.8,11.8 L74.8,12.6 L66.5,12.6 L66.5,12.5 Z M72.1,10.5 C72.1,8.9 71,7.9 69.3,7.9 C67.7,7.9 66.7,8.9 66.5,10.5 L72.1,10.5 Z"></path>
                            <path d="M77.4,6.1 L80,6.1 L80,7.9 L80,7.9 C80.5,6.8 81.5,5.9 83.3,5.9 C86.2,5.9 87.3,8 87.3,10.2 L87.3,17.1 L84.6,17.1 L84.6,11.6 C84.6,10.4 84.5,8.4 82.6,8.4 C80.8,8.4 80.1,9.7 80.1,11.2 L80.1,17.2 L77.4,17.2 L77.4,6.1 L77.4,6.1 Z"></path>
                            <path d="M89.2,8.4 L89.2,6.1 L91.5,6.1 L91.5,2.9 L94.2,2.9 L94.2,6.1 L97.2,6.1 L97.2,8.4 L94.2,8.4 L94.2,13.2 C94.2,14.3 94.5,15 95.7,15 C96.2,15 96.8,14.9 97.2,14.7 L97.2,17 C96.6,17.3 95.7,17.4 95,17.4 C92.1,17.4 91.4,16.1 91.4,13.5 L91.4,8.5 L89.2,8.5 L89.2,8.4 Z"></path>
                            <path d="M101.5,12.5 C101.7,14.1 102.9,15.1 104.4,15.1 C105.8,15.1 106.7,14.5 107.3,13.6 L109.3,15.1 C108,16.7 106.4,17.3 104.7,17.3 C101.4,17.3 98.8,15 98.8,11.6 C98.8,8.2 101.4,5.9 104.7,5.9 C107.8,5.9 109.8,8 109.8,11.8 L109.8,12.6 L101.5,12.6 L101.5,12.5 Z M107.2,10.5 C107.2,8.9 106.1,7.9 104.4,7.9 C102.8,7.9 101.8,8.9 101.6,10.5 L107.2,10.5 Z"></path>
                        </g>
                        <g transform="translate(29.000000, 24.000000)" id="Shape">
                            <path d="M7.1,1.9 L9.6,1.9 L16.6,18 L13.3,18 L11.8,14.3 L4.8,14.3 L3.3,18 L0.1,18 L7.1,1.9 Z M10.7,11.9 L8.2,5.3 L5.7,11.9 L10.7,11.9 Z"></path>
                            <path d="M18,7.1 L20.6,7.1 L20.6,8.8 L20.6,8.8 C21.1,7.8 22.1,6.8 23.9,6.8 C25.6,6.8 26.7,7.5 27.3,8.8 C28.1,7.4 29.3,6.8 30.9,6.8 C33.8,6.8 34.8,8.9 34.8,11.5 L34.8,18 L32.1,18 L32.1,11.8 C32.1,10.4 31.7,9.2 30.1,9.2 C28.4,9.2 27.8,10.6 27.8,12 L27.8,18 L25.1,18 L25.1,11.5 C25.1,10.2 24.6,9.3 23.2,9.3 C21.4,9.3 20.7,10.6 20.7,12.1 L20.7,18.1 L18,18.1 L18,7.1 Z"></path>
                            <path d="M43.7,10.1 C43.2,9.4 42.5,9 41.6,9 C40.9,9 40,9.3 40,10.2 C40,12.2 45.9,10.6 45.9,14.8 C45.9,17.4 43.4,18.3 41.2,18.3 C39.5,18.3 38.1,17.9 36.9,16.6 L38.7,14.9 C39.4,15.7 40.1,16.2 41.3,16.2 C42.1,16.2 43.1,15.8 43.1,14.9 C43.1,12.6 37.2,14.4 37.2,10.3 C37.2,7.9 39.4,6.8 41.6,6.8 C43.1,6.8 44.6,7.3 45.5,8.5 L43.7,10.1 Z"></path>
                            <path d="M46.7,9.4 L46.7,7.1 L49,7.1 L49,3.9 L51.7,3.9 L51.7,7.1 L54.7,7.1 L54.7,9.4 L51.7,9.4 L51.7,14.2 C51.7,15.3 52,16 53.2,16 C53.7,16 54.3,15.9 54.7,15.7 L54.7,18 C54.1,18.3 53.2,18.4 52.5,18.4 C49.6,18.4 48.9,17.1 48.9,14.5 L48.9,9.5 L46.7,9.5 L46.7,9.4 Z"></path>
                            <path d="M59.1,13.5 C59.3,15.1 60.5,16.1 62,16.1 C63.4,16.1 64.3,15.5 64.9,14.6 L66.9,16.1 C65.6,17.7 64,18.3 62.3,18.3 C59,18.3 56.4,16 56.4,12.6 C56.4,9.2 59,6.9 62.3,6.9 C65.4,6.9 67.4,9 67.4,12.8 L67.4,13.6 L59.1,13.6 L59.1,13.5 Z M64.7,11.5 C64.7,9.9 63.6,8.9 61.9,8.9 C60.3,8.9 59.3,9.9 59.1,11.5 L64.7,11.5 Z"></path>
                            <path d="M70,7.1 L72.7,7.1 L72.7,8.8 L72.7,8.8 C73.3,7.5 74.5,6.8 75.9,6.8 C76.2,6.8 76.6,6.9 76.9,7 L76.9,9.6 C76.4,9.5 76,9.4 75.6,9.4 C73,9.4 72.7,11.6 72.7,12.2 L72.7,18 L70,18 L70,7.1 Z"></path>
                            <path d="M87.1,16.4 L87.1,16.4 C86.3,17.7 84.8,18.3 83.3,18.3 C79.9,18.3 77.9,15.8 77.9,12.6 C77.9,9.4 80.1,6.9 83.2,6.9 C85.3,6.9 86.3,7.9 86.9,8.6 L87,8.6 L87,0.9 L89.7,0.9 L89.7,18 L87.1,18 L87.1,16.4 Z M83.8,15.9 C85.8,15.9 87,14.3 87,12.6 C87,10.9 85.8,9.3 83.8,9.3 C81.8,9.3 80.6,10.9 80.6,12.6 C80.6,14.3 81.8,15.9 83.8,15.9 Z"></path>
                            <path d="M99.6,16.5 L99.6,16.5 C98.8,17.7 97.5,18.3 96,18.3 C94,18.3 92,17.2 92,15 C92,11.4 96.1,11.2 98.9,11.2 L99.6,11.2 L99.6,10.9 C99.6,9.6 98.6,8.8 97.1,8.8 C96,8.8 94.9,9.3 94.2,9.9 L92.8,8.5 C94,7.3 95.7,6.7 97.4,6.7 C102.1,6.7 102.1,10.1 102.1,11.6 L102.1,18 L99.6,18 L99.6,16.5 L99.6,16.5 Z M99.5,13.1 L98.9,13.1 C97.4,13.1 94.8,13.2 94.8,14.8 C94.8,15.8 95.8,16.2 96.7,16.2 C98.6,16.2 99.5,15.2 99.5,13.7 L99.5,13.1 L99.5,13.1 Z"></path>
                            <path d="M104.9,7.1 L107.5,7.1 L107.5,8.8 L107.5,8.8 C108,7.8 109,6.8 110.8,6.8 C112.5,6.8 113.6,7.5 114.2,8.8 C115,7.4 116.2,6.8 117.8,6.8 C120.7,6.8 121.7,8.9 121.7,11.5 L121.7,18 L119,18 L119,11.8 C119,10.4 118.6,9.2 117,9.2 C115.3,9.2 114.7,10.6 114.7,12 L114.7,18 L112,18 L112,11.5 C112,10.2 111.5,9.3 110.1,9.3 C108.3,9.3 107.6,10.6 107.6,12.1 L107.6,18.1 L104.9,18.1 L104.9,7.1 Z"></path>
                        </g>
                        <polygon id="Shape" points="0 64 6 58 0 52 4 48 10 54 16 48 20 52 14 58 20 64 16 68 10 62 4 68"></polygon>
                        <polygon id="Shape" points="0 16 6 10 0 4 4 0 10 6 16 0 20 4 14 10 20 16 16 20 10 14 4 20"></polygon>
                        <polygon id="Shape" points="0 40 6 34 0 28 4 24 10 30 16 24 20 28 14 34 20 40 16 44 10 38 4 44"></polygon>
                    </g>
                </g>
            </g>
        </g>
    </g>
</svg>