<?xml version="1.0" encoding="UTF-8"?>
<svg width="32px" height="32px" viewBox="0 0 32 32" version="1.1" xmlns="http://www.w3.org/2000/svg" xmlns:xlink="http://www.w3.org/1999/xlink">
    <title>Icon/32/Print  </title>
    <g id="Icon/32/Print--" stroke="none" stroke-width="1" fill="none" fill-rule="evenodd">
        <path d="M21.41,0 L27,5.59 L27,12 L32,12 L32,28 L27,28 L27,32 L5,32 L5,28 L0,28 L0,12 L5,12 L5,0 L21.41,0 Z M25,20 L7,20 L7,30 L25,30 L25,20 Z M23,26 L23,28 L9,28 L9,26 L23,26 Z M23,22 L23,24 L9,24 L9,22 L23,22 Z M20,2 L7,2 L7,12 L25,12 L25,7 L20,7 L20,2 Z" id="Combined-Shape" fill="#000000"></path>
    </g>
</svg>