<?xml version="1.0" encoding="UTF-8"?>
<svg width="32px" height="32px" viewBox="0 0 32 32" version="1.1" xmlns="http://www.w3.org/2000/svg" xmlns:xlink="http://www.w3.org/1999/xlink">
    <title>Artboard</title>
    <g id="Artboard" stroke="none" stroke-width="1" fill="none" fill-rule="evenodd">
        <g id="recycle-svgrepo-com" transform="translate(4.000000, 0.000000)" fill="#000000" fill-rule="nonzero">
            <path d="M12.2324898,4.10742857 L12.2324898,0.483265306 C12.2324898,0.305632653 12.1342041,0.143020408 11.972898,0.0574693878 C11.813551,-0.0274285714 11.6238367,-0.0179591837 11.4762449,0.0813061224 L1.46383673,6.82057143 C1.32963265,6.91265306 1.25093878,7.06187755 1.25093878,7.22187755 C1.25093878,7.38220408 1.32865306,7.53436735 1.46383673,7.6235102 L11.4716735,14.3608163 C11.621551,14.4604082 11.8089796,14.4702041 11.9706122,14.3892245 C12.1270204,14.3033469 12.2279184,14.138449 12.2279184,13.9601633 L12.2279184,10.0643265 C13.8040816,10.0754286 15.1026939,10.1430204 16.1910204,10.2733061 C21.3982041,10.8933878 22.7908571,14.0173061 22.848,14.1502041 C22.9204898,14.3307755 23.1013878,14.4440816 23.2937143,14.4440816 C23.3214694,14.4440816 23.3560816,14.443102 23.3874286,14.4352653 C23.6120816,14.3905306 23.7763265,14.1926531 23.7763265,13.962449 C23.7763265,6.07053061 14.4052245,4.38987755 12.2324898,4.10742857 Z" id="Path"></path>
            <path d="M22.6086531,24.2844082 L12.5985306,17.5484082 C12.4532245,17.4478367 12.2635102,17.4364082 12.1018776,17.5180408 C11.9454694,17.605551 11.8471837,17.7684898 11.8471837,17.947102 L11.8471837,21.8435918 C10.2690612,21.8315102 8.97044898,21.7642449 7.88440816,21.6333061 C2.67493878,21.013551 1.28195918,17.8899592 1.22710204,17.7570612 C1.15167347,17.5758367 0.971755102,17.4631837 0.781714286,17.4631837 C0.751020408,17.4631837 0.717061224,17.4644898 0.685714286,17.4723265 C0.460408163,17.5170612 0.296816327,17.7146122 0.296816327,17.9457959 C0.296816327,25.8360816 9.66693878,27.5190204 11.8422857,27.803102 L11.8422857,31.4269388 C11.8422857,31.6022857 11.9382857,31.7668571 12.0995918,31.8527347 C12.2589388,31.9366531 12.4486531,31.9275102 12.5962449,31.8282449 L22.6086531,25.0899592 C22.7425306,24.9972245 22.8218786,24.8486531 22.8218786,24.688 C22.8222041,24.5257143 22.7438367,24.372898 22.6086531,24.2844082 Z" id="Path"></path>
        </g>
    </g>
</svg>