<svg xmlns="http://www.w3.org/2000/svg" viewBox="0 0 1000 1000" width="32" height="32">
<path d="M495 134.2c-44.1 0-86.9 7.6-127 21.9h142V169a338.3 338.3 0 01251.2 127.7H804a372.9 372.9 0 00-309-162.5zM212 680.2h-40.5A372.8 372.8 0 00495 865.8c63.8 0 125-16 178.7-45h-94a345.6 345.6 0 01-84.8 10.6A338.3 338.3 0 01212 680.2z"/>
<path d="M368 156.1a372 372 0 00-157.1 108 17.2 17.2 0 001.9 24.3 17.2 17.2 0 0024.3-1.9A338.7 338.7 0 01510 168.8V156H368zM157.8 500c0-42.3 8.1-83.5 23.6-122l-8.5-8.4-37.1 36.5a359.3 359.3 0 0035.8 274.1H212A326.5 326.5 0 01157.8 500zM185 357.8h-3.2l1.1 2 2.1-2z"/>
<path d="M174 351.2c3.3 1.4 6 3.7 7.8 6.6h3.2l-2.1 2c2 4.2 2.2 9.3.3 13.9l-1.7 4.3 127.2 125.1a17.1 17.1 0 0024.3-.2 17.1 17.1 0 00-.2-24.3L185 333.2a17.1 17.1 0 00-24.1 0L15.1 476.5a17.1 17.1 0 00-.2 24.3 17.1 17.1 0 0024.3.2l96.5-94.9c4.2-15.6 9.4-30.9 15.7-45.8a17.3 17.3 0 0122.6-9.1z"/>
<path d="M182.9 359.8l-10 9.8 8.5 8.4 1.7-4.3c2-4.6 1.8-9.7-.2-13.9z"/>
<path d="M181.8 357.8h-21l12.1 11.9 10-9.8c-.3-.8-.7-1.5-1.1-2.1z"/>
<path d="M160.8 357.8h21a17 17 0 00-30.3 2.6 353.4 353.4 0 00-15.7 45.8l37.1-36.5-12.1-11.9zM775.9 695.4h-.2.7-.5zM832.2 500a324 324 0 01-15.4 99.2l4 3.9c3.1-1.5 6.6-2.1 10-1.6l28.2-27.8a360.5 360.5 0 00-55-277.1h-42.7A327 327 0 01832.2 500z"/>
<path d="M830.8 601.6c-3.4-.5-6.9 0-10 1.6l4.2 4.1 5.8-5.7zM793.1 712.6v-.2.7-.5zM786.5 699.1l-.4-.3.6.4-.2-.1zM789.4 723.2l.3-.4a17.2 17.2 0 11-27.3-21l-.1.1a337.3 337.3 0 01-182.5 118.8h94c44.5-24 83.9-57 115.6-97.5z"/>
<path d="M775.9 729.8c5.7 0 10.7-2.8 13.9-7l.6-.8.4-.6.5-.8.3-.7.4-.8.3-.8.3-.8.2-.9.2-.8.1-.9.1-.7.1-1v-.7-1l-.1-.8-.1-.8-.2-.9-.2-.6-.3-1-.2-.6-.4-.9-.4-.7-.4-.7-.5-.9-.3-.5-.6-.8-.4-.5-.6-.7-.5-.6-.6-.5-.7-.6-.6-.4-.8-.6-.6-.4-.8-.5-.7-.3-.8-.3-.8-.3-.8-.3-.9-.2-.8-.2-.9-.1-.7-.1-1-.1h-1.7l-.8.1-.8.1-.9.2-.6.2-1 .3-.6.2-.9.4-.7.4-.7.4-.9.5-.5.3-.8.6-.5.4-.7.6-.6.6-.5.6-.6.7A16.9 16.9 0 00759 713c-.4 9.1 7.4 16.8 16.9 16.8zM844.4 624.7l-.4 1-.3.6-.5.8-.4.7-.4.6-.6.8-.4.5a3 3 0 01-.8.8l-.1.2-.3.3-.8.7-.6.5a3 3 0 01-.7.5l-.7.5-.6.4-.9.4-.6.3-.9.4-.7.2-.9.3-.8.2-.8.2-.9.1-.7.1h-2.7l-.7-.1-.9-.1-.9-.2-.7-.2-1-.3-.4-.1-.2-.1-1-.4-.6-.3-.9-.5-.7-.4-.6-.4-.8-.6-.5-.4-.8-.7-.2-.1-.3-.3-.7-.8-.5-.6a3 3 0 01-.5-.7l-.5-.7-.4-.6-.5-.9-.3-.6-.4-.9-.2-.7-.3-.9-.2-.8-.2-.8-.1-.9-.1-.7v-1-.7-1l.1-.7.1-.9.2-.9.2-.7.3-1 .1-.4a302 302 0 004.6-13.4l-125-123.4a17.1 17.1 0 00-24.3.2 17.1 17.1 0 00.2 24.3L813 643.7a17.1 17.1 0 0024.1 0l147.8-145.4c6.8-6.7 6.9-17.6.2-24.3a17.1 17.1 0 00-24.3-.2L859 573.8a353.8 353.8 0 01-14.5 50.7l-.1.2z"/>
<path d="M822.4 634.7l.4.1-.6-.2.2.1zM840.5 630.8l.1-.2-.4.4.3-.2zM812.1 613a17 17 0 018.7-9.9l-4-3.9c-1.4 4.5-3 9-4.6 13.4l-.1.4zM837.1 619.2L825 607.3l-12.1 11.9h24.2zM840.5 606.4c5 5 6.2 12.2 3.9 18.3l.1-.2a357.5 357.5 0 0014.5-50.7l-28.2 27.8c3.6.5 7 2.1 9.7 4.8z"/>
<path d="M812.1 613l-.3 1-.2.7-.2.9-.1.9-.1.7v2.7l.1.7.1.9.2.8.2.8.3.9.2.7.4.9.3.6.5.9.4.6.5.7.5.7.5.6.7.8.4.4.8.7.5.4.8.6.6.4.7.4.9.5.6.3 1 .4.6.2 1 .3.7.2.9.2.9.1.7.1h2.7l.7-.1.9-.1.8-.2.8-.2.9-.3.7-.2.9-.4.6-.3.9-.5.6-.4.7-.5.7-.5.6-.5.8-.7.4-.4.8-.8.4-.5.6-.8.4-.6.4-.7.5-.8.3-.6.4-1a17.2 17.2 0 00-13.6-23.1l-5.8 5.7 12.1 11.9h-24.1l12.1-11.9-4.2-4.1c-1.7.8-3.2 1.9-4.6 3.3-2.3 2-3.7 4.2-4.5 6.6zM816.2 630.8l.2.1-.4-.4.2.3z"/>
</svg>