<svg height="64px" viewBox="0 0 128 128" width="64px" xmlns="http://www.w3.org/2000/svg">
<path d="M97.264,40.884c-1.713,0-3.373,0.218-4.975,0.596 c-2.666-6.542-8.992-11.143-16.381-11.143c-3.598,0-6.939,1.099-9.736,2.974c-2.074-1.833-4.888-2.974-8.001-2.974 c-5.881,0-10.68,4.043-11.389,9.246c-2.35-1.22-5.086-1.934-8.018-1.934c-8.699,0-15.75,6.17-15.75,13.781 c0,0.938,0.111,1.856,0.314,2.742c-7.902,3.684-13.252,10.705-13.252,18.773c0,11.884,11.586,21.517,25.875,21.517 c6.307,0,12.084-1.881,16.572-5c4.645,5.802,11.621,9.5,19.427,9.5c9.627,0,17.998-5.614,22.278-13.879 c0.992,0.14,2.002,0.237,3.033,0.237c12.116,0,21.938-9.946,21.938-22.218C119.201,50.832,109.381,40.884,97.264,40.884z M70.691,61.061v23.864h-11.25V61.061h-8.438l14.062-18.325l14.063,18.325H70.691z" fill="none" stroke="currentColor" stroke-miterlimit="10" stroke-width="2"/>
</svg>